<svg width="40" height="40" viewBox="0 0 40 40" fill="none" xmlns="http://www.w3.org/2000/svg">
<g clip-path="url(#clip0_2_12)">
<path d="M15.005 13.75C15.005 14.7446 14.6099 15.6984 13.9067 16.4017C13.2034 17.1049 12.2496 17.5 11.255 17.5C10.2604 17.5 9.30662 17.1049 8.60335 16.4017C7.90009 15.6984 7.505 14.7446 7.505 13.75C7.505 12.7554 7.90009 11.8016 8.60335 11.0983C9.30662 10.3951 10.2604 10 11.255 10C12.2496 10 13.2034 10.3951 13.9067 11.0983C14.6099 11.8016 15.005 12.7554 15.005 13.75Z" fill="black"/>
<path d="M5.005 2.5C3.67892 2.5 2.40715 3.02678 1.46947 3.96447C0.531789 4.90215 0.00500488 6.17392 0.00500488 7.5V32.5C0.00500488 33.8261 0.531789 35.0979 1.46947 36.0355C2.40715 36.9732 3.67892 37.5 5.005 37.5H35.005C36.3311 37.5 37.6029 36.9732 38.5405 36.0355C39.4782 35.0979 40.005 33.8261 40.005 32.5V7.5C40.005 6.17392 39.4782 4.90215 38.5405 3.96447C37.6029 3.02678 36.3311 2.5 35.005 2.5H5.005ZM35.005 5C35.668 5 36.3039 5.26339 36.7728 5.73223C37.2416 6.20107 37.505 6.83696 37.505 7.5V23.75L28.0625 18.8825C27.8281 18.7651 27.5626 18.7243 27.3037 18.766C27.0449 18.8078 26.8057 18.9298 26.62 19.115L17.345 28.39L10.695 23.96C10.4549 23.8001 10.1669 23.7283 9.87985 23.7565C9.59279 23.7848 9.32434 23.9114 9.12 24.115L2.505 30V7.5C2.505 6.83696 2.7684 6.20107 3.23724 5.73223C3.70608 5.26339 4.34196 5 5.005 5H35.005Z" fill="black"/>
</g>
<defs>
<clipPath id="clip0_2_12">
<rect width="40" height="40" fill="white"/>
</clipPath>
</defs>
</svg>
