<svg xmlns="http://www.w3.org/2000/svg" version="1.1" xmlns:xlink="http://www.w3.org/1999/xlink" width="1000" height="1000"><g clip-path="url(#SvgjsClipPath1642)"><rect width="1000" height="1000" fill="#ffffff"></rect><g transform="matrix(6.25,0,0,6.25,100,287.5)"><svg xmlns="http://www.w3.org/2000/svg" version="1.1" xmlns:xlink="http://www.w3.org/1999/xlink" width="128" height="68"><svg width="128" height="68" viewBox="0 0 128 68" fill="none" xmlns="http://www.w3.org/2000/svg">
<ellipse cx="53.2344" cy="8.25126" rx="9.00593" ry="8.25126" fill="#0F0E0F"></ellipse>
<path d="M1.02936 12.2117H33.5343C37.5862 12.2117 45.0236 14.9676 44.1592 21.3706C43.2948 27.7736 35.4552 54.4581 31.6435 67.0001C27.6216 66.9725 18.4974 64.5247 19.4879 55.5308C21.4328 46.2894 25.2874 33.5274 26.9982 28.2191C27.2984 26.7064 27.3215 24.2585 23.6667 24.2585L12.6447 24.0935C8.50281 24.011 0.453093 20.991 1.02936 12.2117Z" fill="#0F0E0F"></path>
<path d="M23.6667 24.2585C27.3215 24.2585 27.2984 26.7064 26.9982 28.2191C25.2874 33.5274 21.4328 46.2894 19.4879 55.5308C18.4974 64.5247 27.6216 66.9725 31.6435 67.0001C35.4552 54.4581 43.2948 27.7736 44.1592 21.3706C45.0236 14.9676 37.5862 12.2117 33.5343 12.2117H1.02936C0.453093 20.991 8.50281 24.011 12.6447 24.0935M23.6667 24.2585C16.3914 24.2585 13.305 24.0935 12.6447 24.0935M23.6667 24.2585L12.6447 24.0935" stroke="black" stroke-width="0.0994685"></path>
<path d="M57.785 30.357C58.7757 27.9641 59.226 25.1587 64.3593 24.7461H68.322H70.1231L71.9243 24.7461C71.534 26.1488 63.8929 46.2764 64.404 49.6141C65.1699 54.6157 73.4554 53.9556 75.7515 51.5119C75.7515 51.5119 77.3579 48.7298 77.418 48.3447C80.3899 40.671 82.2631 31.2811 83.632 28.3767C85.0729 25.7363 86.9088 24.7461 89.5759 24.7461H96.7806C93.8987 33.5199 88.4052 52.3053 86.0637 56.4309C83.9022 59.4839 80.905 61.0517 77.5728 62.1243C74.9071 62.9825 69.4375 63.142 67.0359 63.1145C64.6643 63.142 58.9902 62.025 55.5336 59.7315C49.5645 55.7709 52.0813 48.4272 52.4715 46.5294C55.1132 38.8008 57.0305 32.1795 57.785 30.357Z" fill="#0F0E0F" stroke="black" stroke-width="0.0994685"></path>
<path d="M88.1348 67.0001L101.193 25.0012C103.025 24.8087 108.993 24.5392 118.215 25.0012C127.437 25.4633 127.257 32.4273 126.86 34.4076C125.87 39.3584 123.654 47.1971 114.072 49.1774C110.686 49.9035 106.113 50.0585 103.742 49.921C103.051 52.0113 101.193 61.1377 98.6955 63.6503C96.4773 65.8815 90.8065 66.7251 88.1348 67.0001Z" fill="#0F0E0F" stroke="black" stroke-width="0.0994685"></path>
<path d="M104.886 42.0859L107.624 32.5105H114.744C116.57 32.5105 117.026 33.7872 117.209 34.2432C117.391 34.6992 117.3 35.6111 117.209 36.7054C117.117 37.7997 116.387 39.0765 115.748 40.0796C115.109 41.0827 113.74 41.7211 112.645 42.0859C111.768 42.3777 107.107 42.2075 104.886 42.0859Z" fill="white" stroke="black" stroke-width="0.0994685"></path>
</svg></svg></g></g><defs><clipPath id="SvgjsClipPath1642"><rect width="1000" height="1000" x="0" y="0" rx="500" ry="500"></rect></clipPath></defs></svg>