<svg width="15" height="14" viewBox="0 0 15 14" fill="none" xmlns="http://www.w3.org/2000/svg">
<path d="M5.92188 13.875C5.48438 13.875 5.15625 13.7109 4.85938 13.3438L0.8125 8.35938C0.585938 8.08594 0.492188 7.82812 0.492188 7.55469C0.492188 6.92969 0.953125 6.47656 1.59375 6.47656C1.97656 6.47656 2.24219 6.61719 2.5 6.9375L5.89062 11.2344L12.5078 0.75C12.7734 0.328125 13.0391 0.171875 13.4766 0.171875C14.1094 0.171875 14.5625 0.617188 14.5625 1.23438C14.5625 1.47656 14.4922 1.72656 14.3047 2.00781L6.99219 13.3203C6.74219 13.6953 6.38281 13.875 5.92188 13.875Z" fill="white"/>
</svg>
